<svg xmlns="http://www.w3.org/2000/svg" fill="none" viewBox="0 0 243 36"><g clip-path="url(#clip0_1_152)"><path fill="#B9BCC6" d="M10.424 7.093c-2.07 0-3.997.608-5.62 1.655V0H0v18.22h.018c.32 5.511 4.856 9.882 10.406 9.882 5.757 0 10.424-4.704 10.424-10.505 0-5.802-4.667-10.504-10.424-10.504zm0 16.167c-3.104 0-5.62-2.535-5.62-5.663 0-3.127 2.516-5.663 5.62-5.663s5.62 2.535 5.62 5.663c-.001 3.128-2.517 5.663-5.62 5.663zM34.051 7.093c-5.816 0-10.53 4.703-10.53 10.505 0 5.801 4.714 10.505 10.53 10.505 2.091 0 4.04-.608 5.678-1.655v1.655h4.854V17.598c0-5.803-4.715-10.505-10.532-10.505zm0 16.167c-3.135 0-5.677-2.535-5.677-5.663 0-3.127 2.542-5.663 5.677-5.663 3.136 0 5.678 2.535 5.678 5.663s-2.542 5.663-5.678 5.663zM114.762 17.72c0-1.328-1.064-2.405-2.377-2.405h-13.15c.271-.52 1.048-1.84 2.629-2.62a5.789 5.789 0 0 1 2.315-.587 5.735 5.735 0 0 1 1.813.226 5.822 5.822 0 0 1 1.838.91l3.766-3.301a10.767 10.767 0 0 0-3.958-2.299 10.593 10.593 0 0 0-3.458-.503c-3.511.08-5.918 1.92-6.427 2.325-.157.126-2.339 1.901-3.364 4.618-.247.653-.757 2.003-.6 3.732l.004.026a1.8 1.8 0 0 0 .021.197l.014.107h.007c.067.301.193.528.24.611.62 1.088 1.923 1.212 2.078 1.224l1.315.097 11.784.035c-.298.558-1.073 1.805-2.594 2.555a5.786 5.786 0 0 1-2.315.587 5.991 5.991 0 0 1-1.813-.225c-1.688-.478-2.76-1.599-3.233-2.17l-3.677 3.264c.726.879 2.438 2.699 5.265 3.596a10.67 10.67 0 0 0 3.458.504c3.512-.08 5.918-1.92 6.427-2.326.157-.125 2.339-1.9 3.364-4.617.23-.609.688-1.823.623-3.387.002-.057.005-.115.005-.174zM91.817 17.622c0-.068-.003-.135-.008-.202.076-1.586-.382-2.82-.612-3.434-1.012-2.716-3.164-4.492-3.32-4.617-.501-.405-2.876-2.246-6.34-2.326a10.17 10.17 0 0 0-3.412.504 10.027 10.027 0 0 0-3.393 1.935c-.342.28-2.33 1.993-3.294 4.541-.245.648-.75 1.985-.594 3.7 0 .012.002.024.004.037l.003.05c-.063 1.557.392 2.768.622 3.374 1.026 2.717 3.207 4.492 3.364 4.618.509.405 2.916 2.245 6.427 2.325.64.015 1.922-.015 3.458-.503 2.827-.897 4.539-2.718 5.265-3.596l-3.677-3.264c-.473.57-1.545 1.691-3.233 2.17a5.99 5.99 0 0 1-1.813.224 5.787 5.787 0 0 1-2.314-.587c-1.55-.763-2.325-2.042-2.61-2.584l13.1.039c1.313 0 2.377-1.075 2.377-2.404zM76.26 15.218c.28-.532 1.049-1.81 2.594-2.571a5.773 5.773 0 0 1 2.296-.582 5.767 5.767 0 0 1 3.325.92c1.126.775 1.714 1.79 1.94 2.232H76.26zM68.202 24.338V7.108h-4.846v11.17c-.216 2.867-2.653 5.128-5.63 5.128-3.495 0-5.5-3.376-5.649-5.54a4.095 4.095 0 0 1-.01-.268V7.108h-4.819v10.806h.002c.026 5.653 4.706 10.229 10.475 10.229 1.88 0 3.644-.486 5.169-1.337-.128.3-.547 1.194-1.3 1.919-1.347 1.296-3.107 1.42-5.842 1.57-.973.054-2.36.075-4.04-.097l.018 5.002c.834.007 2.064.007 3.553-.032 3.015-.079 4.548-.127 5.83-.56.389-.131 2.332-.815 4.062-2.607 2.788-2.888 3.014-6.574 3.041-7.635l-.014-.028z"/><path fill="url(#paint0_linear_1_152)" d="M186.833 7.288c-5.816 0-10.531 4.703-10.531 10.505 0 5.802 4.715 10.505 10.531 10.505 2.091 0 4.039-.608 5.677-1.655v1.655h4.854V17.793c0-5.803-4.715-10.505-10.531-10.505zm0 16.167c-3.135 0-5.677-2.535-5.677-5.663 0-3.127 2.542-5.663 5.677-5.663s5.677 2.535 5.677 5.663-2.541 5.663-5.677 5.663zm55.981-5.732v10.554h-4.824V17.372c-.086-1.895-1.32-3.257-1.582-3.534-.344-.364-1.8-1.807-4.088-1.811-1.924-.004-3.532 1.01-4.445 2.21-1.025 1.346-1.186 2.945-1.212 3.219a8.673 8.673 0 0 0-.018.268v10.553h-4.825V.297h4.825v8.587c1.281-.837 3.216-1.725 5.683-1.723 4.039.003 6.646 2.389 7.297 3.025.46.45 2.753 2.778 3.137 6.316.054.5.059.923.052 1.22zM163.139 7.246c-5.757 0-10.424 4.703-10.424 10.505 0 5.802 4.667 10.505 10.424 10.505s10.424-4.703 10.424-10.505c0-5.802-4.667-10.505-10.424-10.505zm0 16.167c-3.104 0-5.62-2.535-5.62-5.663s2.516-5.663 5.62-5.663 5.62 2.535 5.62 5.663-2.516 5.663-5.62 5.663zm-13.381.49c-.463.638-2.572 3.393-6.475 4.147-4.502.87-7.826-1.612-8.318-1.993-3.985-3.082-4.067-7.785-4.067-8.325 0-.65.071-4.88 3.593-7.935.381-.33 3.778-3.177 8.519-2.394 3.541.585 5.652 2.836 6.252 3.524l-3.293 3.62c-.287-.414-1.327-1.805-3.244-2.3-1.924-.498-4 .097-5.387 1.492-1.6 1.61-1.635 3.633-1.635 3.994 0 .404.043 2.256 1.475 3.823.141.155 2.077 2.2 4.948 1.782 2.242-.327 3.484-1.928 3.732-2.26 1.3.94 2.6 1.883 3.9 2.826zm69.028 0c-.462.638-2.572 3.393-6.475 4.147-4.502.87-7.826-1.612-8.317-1.993-3.986-3.082-4.068-7.785-4.068-8.325 0-.65.071-4.88 3.593-7.935.381-.33 3.778-3.177 8.519-2.394 3.541.585 5.653 2.836 6.253 3.524l-3.294 3.62c-.287-.414-1.327-1.805-3.244-2.3-1.924-.498-3.999.097-5.386 1.492-1.601 1.61-1.636 3.633-1.636 3.994 0 .404.043 2.256 1.475 3.823.141.155 2.078 2.2 4.948 1.782 2.242-.327 3.484-1.928 3.732-2.26 1.3.94 2.6 1.883 3.9 2.826z"/></g><defs><linearGradient id="paint0_linear_1_152" x1="130.899" x2="242.817" y1="14.296" y2="14.296" gradientUnits="userSpaceOnUse"><stop stop-color="#F2594B"/><stop offset="1" stop-color="#E8845D"/></linearGradient><clipPath id="clip0_1_152"><path fill="#fff" d="M0 0h242.814v35.203H0z"/></clipPath></defs></svg>